<svg width="56" height="80" viewBox="0 0 56 80" fill="none" xmlns="http://www.w3.org/2000/svg">
<rect width="56" height="80" rx="8" fill="white"/>
<path d="M43.6803 46.44C44.497 44.4566 44.9403 42.3333 44.9403 40C44.9403 38.32 44.6837 36.71 44.2403 35.2166C42.7237 35.5666 41.137 35.7533 39.4803 35.7533C36.0876 35.7569 32.7437 34.9448 29.7306 33.3855C26.7174 31.8261 24.1233 29.5652 22.167 26.7933C20.0742 31.857 16.1263 35.9302 11.1303 38.18C11.037 38.7633 11.037 39.3933 11.037 40C11.037 42.2276 11.4758 44.4335 12.3282 46.4915C13.1807 48.5496 14.4302 50.4197 16.0054 51.9948C19.1867 55.1761 23.5014 56.9633 28.0003 56.9633C30.4503 56.9633 32.807 56.4266 34.9303 55.47C36.2603 58.0133 36.867 59.2733 36.8203 59.2733C32.9937 60.5566 30.0303 61.1866 28.0003 61.1866C22.3537 61.1866 16.9637 58.97 12.997 54.98C10.5843 52.5747 8.79086 49.6203 7.77033 46.37H4.66699V35.7533H7.21033C7.98089 32.0025 9.75248 28.5302 12.3371 25.705C14.9217 22.8798 18.223 20.8069 21.8906 19.7064C25.5581 18.6059 29.4552 18.5188 33.1683 19.4543C36.8814 20.3898 40.272 22.313 42.9803 25.02C45.9208 27.9489 47.9265 31.6842 48.7437 35.7533H51.3337V46.37H51.1937L42.887 54L30.5203 52.6V48.7033H41.7903L43.6803 46.44ZM21.6303 39.4633C22.3303 39.4633 23.007 39.7433 23.497 40.2566C23.9894 40.7531 24.2657 41.424 24.2657 42.1233C24.2657 42.8226 23.9894 43.4935 23.497 43.99C23.007 44.48 22.3303 44.76 21.6303 44.76C20.1603 44.76 18.9703 43.5933 18.9703 42.1233C18.9703 40.6533 20.1603 39.4633 21.6303 39.4633ZM34.347 39.4633C35.817 39.4633 36.9837 40.6533 36.9837 42.1233C36.9837 43.5933 35.817 44.76 34.347 44.76C32.877 44.76 31.687 43.5933 31.687 42.1233C31.687 41.4178 31.9672 40.7412 32.4661 40.2424C32.9649 39.7435 33.6415 39.4633 34.347 39.4633Z" fill="#05422C"/>
</svg>
