<svg width="56" height="80" viewBox="0 0 56 80" fill="none" xmlns="http://www.w3.org/2000/svg">
<rect width="56" height="80" rx="8" fill="white"/>
<path d="M24.5 41.0325L19.9675 36.5L17.5 38.9675L24.5 45.9675L38.5 31.9675L36.0325 29.5L24.5 41.0325Z" fill="#05422C"/>
<path d="M28 64.5L17.192 58.7373C14.1108 57.098 11.5342 54.6507 9.73862 51.658C7.94304 48.6653 6.9963 45.2401 7.00001 41.75V19C7.00094 18.072 7.36998 17.1823 8.02616 16.5261C8.68234 15.87 9.57204 15.5009 10.5 15.5H45.5C46.428 15.5009 47.3177 15.87 47.9739 16.5261C48.63 17.1823 48.9991 18.072 49 19V41.75C49.0037 45.2401 48.057 48.6653 46.2614 51.658C44.4658 54.6507 41.8892 57.098 38.808 58.7373L28 64.5ZM10.5 19V41.75C10.4971 44.6057 11.2719 47.4082 12.7413 49.8568C14.2108 52.3054 16.3192 54.3076 18.8405 55.6485L28 60.5327L37.1595 55.6503C39.681 54.3092 41.7897 52.3067 43.2591 49.8578C44.7285 47.4089 45.5032 44.606 45.5 41.75V19H10.5Z" fill="#05422C"/>
</svg>
