<svg width="56" height="80" viewBox="0 0 56 80" fill="none" xmlns="http://www.w3.org/2000/svg">
<rect width="56" height="80" rx="8" fill="white"/>
<path d="M45.5 19H10.5L0 31.25L28 64.5L56 31.25L45.5 19ZM16.24 29.5H6.125L11.445 23.27L16.24 29.5ZM22.47 29.5L28 23.06L33.53 29.5H22.47ZM35 33L28 56.38L21 33H35ZM18.41 33L25.025 55.54L6.055 33H18.41ZM37.625 33H49.98L30.975 55.54L37.625 33ZM39.795 29.5L44.59 23.27L49.875 29.5H39.725H39.795ZM42 22.5L36.96 28.835L31.85 22.5H42ZM19.005 28.905L14 22.5H24.15L19.005 28.905Z" fill="#05422C"/>
</svg>
