<svg width="56" height="80" viewBox="0 0 56 80" fill="none" xmlns="http://www.w3.org/2000/svg">
<rect width="56" height="80" rx="8" fill="white"/>
<path d="M11.1998 14.7998C12.219 14.7998 13.1766 15.0714 13.9998 15.5502C14.8511 15.0587 15.8168 14.8 16.7998 14.7999C17.7828 14.7999 18.7484 15.0587 19.5997 15.5502C20.451 16.0417 21.158 16.7486 21.6495 17.5999C22.141 18.4511 22.3998 19.4168 22.3998 20.3998V23.1998H23.7998C24.1711 23.1998 24.5272 23.3473 24.7898 23.6099C25.0523 23.8724 25.1998 24.2285 25.1998 24.5998V37.1998C25.1998 38.685 24.6098 40.1094 23.5596 41.1596C22.5094 42.2098 21.085 42.7998 19.5998 42.7998H8.3998C6.91459 42.7998 5.49021 42.2098 4.44001 41.1596C3.3898 40.1094 2.7998 38.685 2.7998 37.1998V24.5998C2.7998 24.2285 2.9473 23.8724 3.20986 23.6099C3.47241 23.3473 3.8285 23.1998 4.1998 23.1998H5.5998V20.3998C5.5998 18.9146 6.1898 17.4902 7.24001 16.44C8.29021 15.3898 9.71459 14.7998 11.1998 14.7998ZM8.3998 23.1998H13.9998V20.3998C13.9998 19.6572 13.7048 18.945 13.1797 18.4199C12.6546 17.8948 11.9424 17.5998 11.1998 17.5998C10.4572 17.5998 9.74501 17.8948 9.21991 18.4199C8.6948 18.945 8.3998 19.6572 8.3998 20.3998V23.1998ZM16.7998 20.3998V23.1998H19.5998V20.3998C19.6001 19.9723 19.5026 19.5504 19.3146 19.1664C19.1266 18.7825 18.8532 18.4467 18.5153 18.1847C18.1774 17.9228 17.784 17.7417 17.3653 17.6554C16.9466 17.5691 16.5137 17.5797 16.0998 17.6866C16.5478 18.4902 16.7998 19.417 16.7998 20.3998ZM25.1998 20.6378V20.3998H34.2998C37.0074 20.3998 39.1998 22.595 39.1998 25.2998V28.7998H41.6694C42.4498 28.7998 43.2148 29.0173 43.8785 29.4278C44.5422 29.8383 45.0784 30.4256 45.427 31.1238L49.9574 40.1818C50.2493 40.7642 50.4017 41.4064 50.4026 42.0578V52.5998C50.4026 53.7137 49.9601 54.782 49.1725 55.5697C48.3848 56.3573 47.3165 56.7998 46.2026 56.7998H41.8626C41.5413 58.3822 40.6828 59.8049 39.4326 60.8267C38.1823 61.8486 36.6173 62.4068 35.0026 62.4068C33.3879 62.4068 31.8229 61.8486 30.5726 60.8267C29.3224 59.8049 28.4639 58.3822 28.1426 56.7998H25.0626C24.7413 58.3822 23.8828 59.8049 22.6326 60.8267C21.3823 61.8486 19.8173 62.4068 18.2026 62.4068C16.5879 62.4068 15.0229 61.8486 13.7726 60.8267C12.5224 59.8049 11.6639 58.3822 11.3426 56.7998H10.6174C9.31784 56.7998 8.07151 56.2836 7.15258 55.3646C6.23365 54.4457 5.7174 53.1994 5.7174 51.8998V45.163C6.5602 45.4458 7.4618 45.5998 8.3998 45.5998H8.5174V51.8998C8.5174 53.059 9.4582 53.9998 10.6174 53.9998H11.3426C11.6639 52.4174 12.5224 50.9947 13.7726 49.9729C15.0229 48.951 16.5879 48.3928 18.2026 48.3928C19.8173 48.3928 21.3823 48.951 22.6326 49.9729C23.8828 50.9947 24.7413 52.4174 25.0626 53.9998H28.1426C28.5136 52.1808 29.5919 50.5837 31.1405 49.5598C32.689 48.5358 34.5808 48.1689 36.3998 48.5398V25.2998C36.3998 24.7429 36.1786 24.2087 35.7847 23.8149C35.3909 23.4211 34.8568 23.1998 34.2998 23.1998H27.7618C27.5524 22.609 27.2137 22.0724 26.7704 21.6292C26.3272 21.186 25.7906 20.8473 25.1998 20.6378ZM39.1998 49.7998C40.5438 50.8078 41.5154 52.2918 41.8598 53.9998H46.1998C46.5711 53.9998 46.9272 53.8523 47.1898 53.5898C47.4523 53.3272 47.5998 52.9711 47.5998 52.5998V42.7998H39.1998V49.7998ZM39.1998 39.9998H46.7374L42.9238 32.3726C42.8074 32.1404 42.6287 31.9451 42.4077 31.8086C42.1866 31.6721 41.932 31.5998 41.6722 31.5998H39.1998V39.9998ZM18.1998 51.1998C17.0859 51.1998 16.0176 51.6423 15.23 52.43C14.4423 53.2176 13.9998 54.2859 13.9998 55.3998C13.9998 56.5137 14.4423 57.582 15.23 58.3697C16.0176 59.1573 17.0859 59.5998 18.1998 59.5998C19.3137 59.5998 20.382 59.1573 21.1697 58.3697C21.9573 57.582 22.3998 56.5137 22.3998 55.3998C22.3998 54.2859 21.9573 53.2176 21.1697 52.43C20.382 51.6423 19.3137 51.1998 18.1998 51.1998ZM30.7998 55.3998C30.7998 55.9514 30.9084 56.4975 31.1195 57.0071C31.3306 57.5166 31.6399 57.9796 32.03 58.3697C32.42 58.7597 32.883 59.069 33.3925 59.2801C33.9021 59.4912 34.4483 59.5998 34.9998 59.5998C35.5514 59.5998 36.0975 59.4912 36.6071 59.2801C37.1166 59.069 37.5796 58.7597 37.9697 58.3697C38.3597 57.9796 38.669 57.5166 38.8801 57.0071C39.0912 56.4975 39.1998 55.9514 39.1998 55.3998C39.1998 54.2859 38.7573 53.2176 37.9697 52.43C37.182 51.6423 36.1137 51.1998 34.9998 51.1998C33.8859 51.1998 32.8176 51.6423 32.03 52.43C31.2423 53.2176 30.7998 54.2859 30.7998 55.3998Z" fill="#05422C"/>
</svg>
