<svg width="56" height="80" viewBox="0 0 56 80" fill="none" xmlns="http://www.w3.org/2000/svg">
<rect width="56" height="80" rx="8" fill="white"/>
<path d="M48.2815 20.7619C47.9602 20.2685 47.521 19.863 47.0036 19.5819C46.4862 19.3008 45.907 19.153 45.3182 19.1519H35.0282C34.3599 19.1487 33.705 19.3386 33.142 19.6987C32.5791 20.0588 32.1321 20.5739 31.8548 21.1819L28.0002 29.4652L24.1268 21.1819C23.8496 20.5739 23.4026 20.0588 22.8397 19.6987C22.2767 19.3386 21.6218 19.1487 20.9535 19.1519H10.6682C10.0797 19.1545 9.50129 19.3054 8.98658 19.5908C8.47186 19.8761 8.0374 20.2867 7.7234 20.7844C7.40939 21.2822 7.22597 21.8511 7.1901 22.4385C7.15423 23.026 7.26707 23.613 7.51818 24.1452L16.2215 42.8586C15.5198 44.4875 15.1547 46.2416 15.1482 48.0152C15.1482 51.4188 16.5003 54.683 18.907 57.0898C21.3137 59.4965 24.5779 60.8486 27.9815 60.8486C31.3851 60.8486 34.6493 59.4965 37.056 57.0898C39.4628 54.683 40.8148 51.4188 40.8148 48.0152C40.8197 46.2479 40.4541 44.4992 39.7415 42.8819L48.4915 24.1452C48.7407 23.6083 48.852 23.0177 48.8153 22.4269C48.7786 21.8362 48.5952 21.2639 48.2815 20.7619ZM9.61818 23.1652C9.53619 22.9833 9.49972 22.7841 9.51192 22.5849C9.52411 22.3857 9.58461 22.1925 9.68818 22.0219C9.79263 21.8567 9.93737 21.7208 10.1088 21.6269C10.2802 21.533 10.4727 21.4843 10.6682 21.4852H20.9582C21.1829 21.4844 21.4032 21.5477 21.5932 21.6675C21.7833 21.7873 21.9353 21.9588 22.0315 22.1619L28.1215 35.1819H27.9815C25.9676 35.1854 23.9828 35.6624 22.1872 36.5744C20.3916 37.4864 18.8356 38.8078 17.6448 40.4319L9.61818 23.1652ZM27.9815 58.5152C25.9048 58.5152 23.8747 57.8994 22.148 56.7457C20.4213 55.5919 19.0755 53.952 18.2808 52.0334C17.4861 50.1148 17.2781 48.0036 17.6833 45.9668C18.0884 43.93 19.0884 42.0591 20.5569 40.5906C22.0253 39.1222 23.8963 38.1221 25.9331 37.717C27.9699 37.3118 30.0811 37.5198 31.9997 38.3145C33.9183 39.1092 35.5582 40.455 36.7119 42.1817C37.8657 43.9085 38.4815 45.9385 38.4815 48.0152C38.4815 49.3941 38.2099 50.7595 37.6822 52.0334C37.1546 53.3073 36.3811 54.4648 35.4061 55.4398C34.4311 56.4149 33.2736 57.1883 31.9997 57.716C30.7258 58.2436 29.3604 58.5152 27.9815 58.5152ZM46.3915 23.1652L38.3182 40.4319C36.5012 37.9368 33.8393 36.187 30.8282 35.5086L29.2882 32.1952L33.9548 22.1619C34.051 21.9588 34.203 21.7873 34.3931 21.6675C34.5832 21.5477 34.8035 21.4844 35.0282 21.4852H45.3182C45.5141 21.4815 45.7076 21.5291 45.8795 21.6233C46.0514 21.7174 46.1957 21.8548 46.2982 22.0219C46.4098 22.1887 46.477 22.3813 46.4934 22.5814C46.5097 22.7815 46.4746 22.9825 46.3915 23.1652Z" fill="#05422C"/>
<path d="M28.1795 51.3867L30.5689 52.6421C30.6361 52.6778 30.7119 52.6939 30.7879 52.6886C30.8638 52.6832 30.9367 52.6567 30.9982 52.6119C31.0598 52.5672 31.1075 52.506 31.1359 52.4354C31.1644 52.3648 31.1725 52.2877 31.1592 52.2127L30.6925 49.5527C30.6817 49.4877 30.6868 49.421 30.7076 49.3584C30.7283 49.2957 30.764 49.2391 30.8115 49.1934L32.7435 47.3104C32.7993 47.2569 32.8387 47.1887 32.8572 47.1137C32.8758 47.0387 32.8726 46.9599 32.8482 46.8866C32.8238 46.8133 32.779 46.7484 32.7192 46.6996C32.6594 46.6507 32.5869 46.6197 32.5102 46.6104L29.8665 46.2277C29.8 46.2169 29.7372 46.19 29.6835 46.1493C29.6299 46.1086 29.5869 46.0555 29.5585 45.9944L28.3639 43.5747C28.3306 43.5062 28.2787 43.4485 28.2141 43.408C28.1495 43.3676 28.0749 43.3462 27.9987 43.3462C27.9225 43.3462 27.8479 43.3676 27.7833 43.408C27.7187 43.4485 27.6668 43.5062 27.6335 43.5747L26.4389 45.9944C26.4112 46.0555 26.3687 46.1088 26.3154 46.1496C26.2621 46.1903 26.1995 46.2171 26.1332 46.2277L23.4615 46.6151C23.3848 46.6244 23.3123 46.6553 23.2525 46.7042C23.1927 46.7531 23.1479 46.818 23.1235 46.8913C23.0991 46.9646 23.0959 47.0433 23.1145 47.1183C23.133 47.1934 23.1724 47.2616 23.2282 47.3151L25.1602 49.1981C25.2073 49.244 25.2425 49.3007 25.2629 49.3633C25.2832 49.4259 25.288 49.4925 25.2769 49.5574L24.8102 52.2174C24.7969 52.2923 24.805 52.3695 24.8334 52.4401C24.8619 52.5107 24.9096 52.5718 24.9712 52.6166C25.0327 52.6613 25.1056 52.6879 25.1815 52.6932C25.2574 52.6986 25.3333 52.6825 25.4005 52.6467L27.7899 51.3914C27.8491 51.3576 27.9159 51.3394 27.9841 51.3386C28.0523 51.3378 28.1195 51.3544 28.1795 51.3867Z" fill="#05422C"/>
</svg>
