<svg width="56" height="80" viewBox="0 0 56 80" fill="none" xmlns="http://www.w3.org/2000/svg">
<rect width="56" height="80" rx="8" fill="white"/>
<path d="M54.5779 35.6469L49.2185 25.3656C48.8448 24.6541 48.2083 24.1166 47.4443 23.8673C46.6803 23.6181 45.8492 23.6769 45.1278 24.0312L39.9435 26.6344H36.1591L28.8528 23.3312C28.1891 23.0184 27.4327 22.9638 26.731 23.1781L15.9247 26.3281L10.8716 23.7906C10.1494 23.442 9.32028 23.3861 8.55784 23.6349C7.79539 23.8836 7.15869 24.4175 6.78097 25.125L1.4216 35.4281C1.22689 35.7867 1.10689 36.1809 1.06883 36.5872C1.03077 36.9934 1.07545 37.4031 1.20016 37.7915C1.32488 38.18 1.52705 38.5392 1.79445 38.8473C2.06186 39.1554 2.38895 39.4062 2.75597 39.5844L8.04972 42.2312L19.906 51.4844C20.2365 51.7587 20.6257 51.9533 21.0435 52.0531L33.731 55.225C33.9666 55.2864 34.2094 55.3159 34.4529 55.3125C35.2646 55.3102 36.0428 54.9879 36.6185 54.4156L44.6685 46.3656H44.756L48.081 42.4062L53.2435 39.825C53.6094 39.6399 53.935 39.3841 54.2016 39.0725C54.4682 38.7609 54.6704 38.3995 54.7966 38.0094C54.9191 37.6208 54.9629 37.2117 54.9253 36.8061C54.8877 36.4004 54.7696 36.0063 54.5779 35.6469ZM43.531 43.6531L34.8904 37.375C34.6628 37.2129 34.3895 37.1276 34.1102 37.1315C33.8309 37.1355 33.5601 37.2284 33.3372 37.3969L30.5372 39.4969C29.5513 40.2319 28.3545 40.6289 27.1247 40.6289C25.895 40.6289 24.6981 40.2319 23.7122 39.4969L22.531 38.6C22.4756 38.5655 22.4302 38.517 22.3995 38.4594C22.3688 38.4018 22.3538 38.3371 22.356 38.2719C22.3508 38.2107 22.3599 38.1492 22.3827 38.0923C22.4055 38.0353 22.4413 37.9844 22.4872 37.9437L31.0403 29.3687C31.1283 29.3008 31.2355 29.2625 31.3466 29.2594H39.4622L45.6747 41.1594L43.531 43.6531ZM3.71847 36.9812C3.69483 36.9252 3.6845 36.8644 3.6883 36.8037C3.69209 36.743 3.70991 36.6839 3.74035 36.6312L9.1216 26.3281C9.16123 26.2594 9.2188 26.2027 9.28816 26.1642C9.35752 26.1256 9.43605 26.1067 9.51535 26.1094C9.57715 26.1007 9.6399 26.1164 9.69035 26.1531L13.9778 28.275L8.18097 39.3656L3.93722 37.2219C3.88492 37.201 3.83805 37.1684 3.80015 37.1267C3.76226 37.0851 3.73433 37.0353 3.71847 36.9812ZM34.781 52.5562C34.727 52.6087 34.6603 52.6463 34.5875 52.6655C34.5147 52.6846 34.4382 52.6847 34.3654 52.6656L21.6779 49.5156L21.5247 49.4281L10.4122 40.7437L16.6247 28.8437L27.4747 25.6937C27.5766 25.669 27.6837 25.6766 27.781 25.7156L30.2529 26.8312C29.8511 26.9882 29.4862 27.2265 29.181 27.5312L20.6279 36.0844C20.3142 36.3928 20.0712 36.7657 19.9157 37.1772C19.7601 37.5887 19.6957 38.0291 19.7269 38.4679C19.7581 38.9067 19.8842 39.3335 20.0963 39.7189C20.3085 40.1043 20.6018 40.439 20.956 40.7L22.1372 41.5969C23.5817 42.6627 25.3296 43.2378 27.1247 43.2378C28.9199 43.2378 30.6678 42.6627 32.1122 41.5969L34.1466 40.0656L41.7372 45.6L34.781 52.5562ZM52.281 37.2C52.2666 37.2574 52.2394 37.3108 52.2016 37.3562C52.1637 37.4017 52.1161 37.438 52.0622 37.4625L47.8185 39.5844L42.0216 28.5156L46.3091 26.3719C46.4111 26.3257 46.5269 26.3203 46.6327 26.357C46.7385 26.3936 46.8262 26.4694 46.8778 26.5687L52.2591 36.8719C52.2893 36.9206 52.3072 36.976 52.311 37.0332C52.3148 37.0904 52.3045 37.1477 52.281 37.2ZM25.7685 58.8781C25.6966 59.1618 25.5334 59.4139 25.3042 59.5957C25.0749 59.7775 24.7923 59.879 24.4997 59.8844L24.1716 59.8406L17.5872 58.1781C17.117 58.0665 16.6813 57.8412 16.3185 57.5219L11.3966 53.2344C11.2422 53.1307 11.1117 52.9955 11.0135 52.8376C10.9154 52.6796 10.8519 52.5027 10.8273 52.3184C10.8027 52.1341 10.8175 51.9467 10.8708 51.7685C10.9241 51.5904 11.0146 51.4256 11.1364 51.2851C11.2582 51.1446 11.4084 51.0316 11.5772 50.9535C11.7459 50.8755 11.9293 50.8341 12.1152 50.8323C12.3012 50.8304 12.4853 50.8681 12.6556 50.9428C12.8259 51.0175 12.9783 51.1276 13.1028 51.2656L18.0466 55.5531C18.0976 55.5951 18.1574 55.625 18.2216 55.6406L24.8279 57.2812C25.1641 57.3687 25.4519 57.586 25.6282 57.8853C25.8045 58.1846 25.8549 58.5417 25.7685 58.8781Z" fill="#05422C"/>
</svg>
