<svg width="20" height="21" viewBox="0 0 20 21" fill="none" xmlns="http://www.w3.org/2000/svg">
<path d="M1.9507 0.84082H18.0491C18.2606 0.840805 18.4699 0.882434 18.6653 0.96333C18.8606 1.04423 19.0381 1.1628 19.1876 1.3123C19.3371 1.46179 19.4557 1.63926 19.5367 1.83459C19.6176 2.02992 19.6592 2.23927 19.6592 2.4507V18.5495C19.6592 18.7609 19.6176 18.9702 19.5367 19.1656C19.4557 19.3609 19.3371 19.5383 19.1876 19.6878C19.0381 19.8373 18.8607 19.9559 18.6653 20.0367C18.47 20.1176 18.2607 20.1593 18.0493 20.1592H1.95047C1.52358 20.1592 1.11418 19.9897 0.812316 19.6878C0.510452 19.386 0.340851 18.9766 0.34082 18.5497V2.45058C0.340851 2.02364 0.510476 1.61419 0.812383 1.3123C1.11429 1.01042 1.52375 0.84082 1.9507 0.84082Z" fill="#FDB913"/>
<path d="M18.0493 0.840728C18.4762 0.84085 18.8856 1.01052 19.1875 1.31244C19.4893 1.61436 19.6589 2.02379 19.6589 2.45072V18.5494C19.6589 18.9763 19.4893 19.3857 19.1875 19.6876C18.8856 19.9895 18.4762 20.1592 18.0493 20.1593H1.95061C1.73918 20.1593 1.52982 20.1177 1.33448 20.0368C1.13914 19.9559 0.96165 19.8373 0.812149 19.6878C0.662649 19.5383 0.544068 19.3609 0.46318 19.1655C0.382292 18.9702 0.340683 18.7608 0.340728 18.5494V2.45072C0.340683 2.23929 0.382292 2.02992 0.463178 1.83458C0.544065 1.63923 0.662644 1.46173 0.812142 1.31222C0.961641 1.16271 1.13913 1.04412 1.33447 0.963222C1.52981 0.882322 1.73918 0.840698 1.95061 0.840728H18.0493ZM18.0493 0.5H1.95061C1.43342 0.500547 0.937577 0.706248 0.571883 1.07196C0.206188 1.43768 0.00051644 1.93354 0 2.45072L0 18.5494C0.000577133 19.0665 0.206272 19.5624 0.571957 19.928C0.937641 20.2937 1.43345 20.4994 1.95061 20.5H18.0493C18.5664 20.4994 19.0622 20.2937 19.4278 19.928C19.7935 19.5623 19.9991 19.0665 19.9997 18.5494V2.45072C19.9992 1.93357 19.7935 1.43773 19.4279 1.07201C19.0622 0.706295 18.5664 0.500577 18.0493 0.5Z" fill="white"/>
<path d="M11.1271 10.7084L11.1255 7.24961L12.0283 7.03535V7.48889C12.0283 7.48889 12.2622 6.89259 12.8049 6.75419C12.886 6.72807 12.9722 6.72228 13.056 6.73732V7.61983C12.8935 7.62196 12.7329 7.65539 12.583 7.7183C12.2494 7.85005 12.0815 8.13753 12.0815 8.57637L12.082 10.4862L11.1271 10.7084ZM6.36783 11.8332C6.36783 11.8332 6.22093 11.6131 6.22093 10.8348V9.11277L5.75649 9.22329V8.51371L6.22208 8.40377V7.63028L7.18206 7.40362V8.177L7.8603 8.01588V8.72453L7.18206 8.88554C7.18206 8.88554 7.18091 10.2965 7.18206 10.6391C7.18206 11.4366 7.39368 11.5897 7.39368 11.5897L6.36783 11.8332ZM7.96072 9.77552C7.96072 9.16063 8.04828 8.71202 8.23626 8.36774C8.46005 7.95919 8.82671 7.69294 9.36104 7.57129C10.4142 7.33178 10.7944 7.95517 10.7796 8.79109C10.774 9.09005 10.7754 9.23568 10.7754 9.23568L8.9199 9.67178V9.70161C8.9199 10.2858 9.04235 10.5629 9.41246 10.4843C9.73218 10.4169 9.82112 10.2167 9.84637 9.96901C9.8505 9.92907 9.85245 9.82751 9.85245 9.82751L10.7217 9.61921C10.7217 9.61921 10.7237 9.69037 10.7225 9.77024C10.7149 10.1021 10.6184 10.9254 9.41028 11.2111C8.26587 11.4827 7.96083 10.7838 7.96083 9.77541M9.3996 8.21556C9.09216 8.28534 8.93092 8.58693 8.92392 9.08661L9.85728 8.86431C9.85888 8.8417 9.85911 8.7919 9.85888 8.71386C9.85728 8.33664 9.74068 8.13753 9.3996 8.21556ZM16.3054 7.75284C16.2694 6.69944 16.5426 5.8634 17.7179 5.59716C18.4669 5.42697 18.7514 5.62183 18.8955 5.81016C19.034 5.98987 19.0875 6.23225 19.0875 6.57171L19.0883 6.63403L18.1688 6.85254L18.1681 6.72458C18.1688 6.32199 18.0569 6.1689 17.7645 6.24212C17.4167 6.32945 17.2763 6.65951 17.2763 7.31572C17.2763 7.54868 17.2774 7.59046 17.2774 7.6219C17.2774 8.28878 17.3684 8.59405 17.7692 8.51016C18.1169 8.43832 18.1644 8.13305 18.17 7.86542C18.1707 7.82342 18.1725 7.68892 18.1725 7.68892L19.0906 7.47202C19.0906 7.47202 19.0915 7.53985 19.0915 7.61524C19.0892 8.48973 18.6283 9.04082 17.7648 9.24176C16.5752 9.52063 16.3422 8.83321 16.3053 7.75284M13.1268 9.22765C13.1268 8.42638 13.5962 8.17299 14.3027 7.88069C14.938 7.61788 14.9518 7.4874 14.9544 7.25902C14.9579 7.0668 14.8688 6.90234 14.5525 6.98302C14.4471 7.00427 14.3519 7.06053 14.2824 7.14266C14.2129 7.2248 14.1732 7.328 14.1697 7.43553C14.1645 7.49456 14.1625 7.55382 14.1637 7.61306L13.2729 7.82342C13.2669 7.6459 13.2877 7.46848 13.3344 7.29712C13.4767 6.81799 13.8994 6.49563 14.6288 6.32681C15.5765 6.10842 15.8924 6.52432 15.8935 7.17123V8.70319C15.8935 9.44409 16.0311 9.55265 16.0311 9.55265L15.1566 9.75957C15.1084 9.65852 15.0692 9.55341 15.0395 9.44547C15.0395 9.44547 14.8478 9.92792 14.1876 10.0831C13.4941 10.2466 13.1268 9.81683 13.1268 9.22765ZM14.9483 8.13351C14.8009 8.23685 14.6453 8.32797 14.4831 8.40595C14.1916 8.54837 14.0599 8.72407 14.0599 8.99468C14.0599 9.22902 14.205 9.38292 14.4689 9.31774C14.7519 9.24635 14.9483 8.98229 14.9483 8.61539V8.13351ZM1.34838 14.2578C1.24857 14.2577 1.15064 14.2306 1.06489 14.1795C0.979153 14.1284 0.908774 14.0552 0.861165 13.9675C0.813557 13.8797 0.79048 13.7808 0.794366 13.6811C0.798252 13.5813 0.828956 13.4845 0.883246 13.4007L0.889443 13.3927L0.899771 13.3899L2.20565 13.0817V14.0734L2.18533 14.0781C1.94476 14.136 1.70371 14.192 1.46222 14.246C1.42479 14.2539 1.38663 14.2578 1.34838 14.2578ZM1.34838 15.5264C1.20145 15.5264 1.06051 15.4681 0.956555 15.3642C0.852595 15.2604 0.794113 15.1196 0.793961 14.9726C0.793661 14.8656 0.824698 14.7608 0.883246 14.6711L0.889443 14.662L0.899771 14.6592L2.20565 14.3511V15.3427L2.18533 15.348C1.88913 15.4192 1.53509 15.5011 1.46222 15.5157C1.42471 15.5229 1.38658 15.5265 1.34838 15.5264ZM1.34838 16.7975C1.20138 16.7974 1.06044 16.7389 0.956486 16.635C0.852536 16.5311 0.794082 16.3901 0.793961 16.2432C0.793569 16.1361 0.824615 16.0313 0.883246 15.9418L0.889443 15.9318L2.20565 15.6216V16.6131L2.18533 16.6185C1.87249 16.6938 1.52511 16.7723 1.46222 16.7861C1.42474 16.7936 1.38661 16.7974 1.34838 16.7975ZM2.20553 7.25501V12.8035L1.19425 13.0427L1.19391 7.49406L2.20553 7.25501ZM3.71396 12.5705C3.71508 12.4879 3.69977 12.4058 3.6689 12.3291C3.63804 12.2524 3.59225 12.1826 3.53418 12.1237C3.47611 12.0649 3.40693 12.0181 3.33065 11.9862C3.25437 11.9543 3.17251 11.9379 3.08983 11.9379C3.00715 11.9379 2.92529 11.9543 2.84901 11.9862C2.77273 12.0181 2.70354 12.0649 2.64548 12.1237C2.58741 12.1826 2.54162 12.2524 2.51075 12.3291C2.47989 12.4058 2.46458 12.4879 2.4657 12.5705L2.46684 17.7566C2.46739 18.2045 2.64544 18.6338 2.96198 18.9506C3.27853 19.2674 3.70774 19.4457 4.15556 19.4466C4.62804 19.4466 5.92232 19.4443 5.92232 19.4443L5.9229 17.2808L5.92347 14.8682C5.92362 14.7337 5.89056 14.6012 5.82724 14.4826C5.76392 14.3639 5.67229 14.2627 5.56048 14.188L3.98595 13.1184L3.98549 15.5471C3.98549 15.5648 3.98201 15.5822 3.97527 15.5985C3.96852 15.6148 3.95863 15.6296 3.94616 15.6421C3.93369 15.6545 3.91889 15.6644 3.9026 15.6712C3.88631 15.6779 3.86885 15.6814 3.85122 15.6814C3.83358 15.6814 3.81612 15.6779 3.79983 15.6712C3.78354 15.6644 3.76874 15.6545 3.75627 15.6421C3.7438 15.6296 3.73391 15.6148 3.72717 15.5985C3.72042 15.5822 3.71694 15.5648 3.71694 15.5471C3.71694 15.5211 3.71396 12.8913 3.71396 12.5705ZM4.55689 8.70135C4.36554 8.74575 4.18604 8.83094 4.03064 8.95108C3.87524 9.07122 3.74761 9.2235 3.65646 9.39749V9.00753L2.7456 9.22306L2.74675 11.7134C2.90651 11.6502 3.08063 11.6325 3.24986 11.662C3.41909 11.6916 3.57684 11.7674 3.7057 11.8811V10.2732C3.7057 9.88799 3.89735 9.58031 4.17117 9.51995C4.37717 9.47473 4.5492 9.54841 4.5492 9.9153L4.54989 12.2613L5.50929 12.0363V9.5546C5.50929 8.95291 5.27759 8.53231 4.55689 8.70135ZM18.4965 5.15005C18.3792 5.15016 18.2645 5.11546 18.1668 5.05034C18.0692 4.98522 17.9931 4.8926 17.9481 4.78421C17.9032 4.67582 17.8914 4.55653 17.9142 4.44143C17.9371 4.32634 17.9936 4.2206 18.0766 4.13762C18.1595 4.05464 18.2652 3.99813 18.3803 3.97525C18.4954 3.95237 18.6147 3.96415 18.7231 4.00909C18.8315 4.05403 18.9241 4.13012 18.9893 4.22773C19.0544 4.32533 19.0891 4.44007 19.0891 4.55742C19.0889 4.71453 19.0264 4.86518 18.9154 4.9763C18.8043 5.08742 18.6537 5.14983 18.4965 5.15005ZM18.4965 4.03869C18.394 4.03867 18.2937 4.06906 18.2084 4.12603C18.1231 4.183 18.0566 4.26398 18.0173 4.35873C17.9781 4.45349 17.9678 4.55776 17.9878 4.65836C18.0078 4.75897 18.0571 4.85139 18.1296 4.92393C18.2021 4.99648 18.2945 5.04589 18.3951 5.06592C18.4957 5.08595 18.6 5.07571 18.6948 5.03648C18.7896 4.99725 18.8706 4.93079 18.9276 4.84552C18.9846 4.76025 19.015 4.65999 19.015 4.55742C19.0149 4.41992 18.9603 4.28808 18.8631 4.19084C18.7659 4.09359 18.634 4.03887 18.4965 4.03869Z" fill="#231F20"/>
<path d="M18.2803 4.20408H18.5358C18.5608 4.2014 18.5861 4.20439 18.6097 4.21282C18.6334 4.22124 18.6549 4.2349 18.6725 4.25276C18.6902 4.27063 18.7036 4.29224 18.7117 4.316C18.7199 4.33976 18.7226 4.36505 18.7196 4.38999C18.7196 4.48398 18.6779 4.55617 18.5991 4.56845V4.56982C18.6708 4.57717 18.7086 4.61676 18.7122 4.71855C18.7136 4.76446 18.7143 4.82138 18.7165 4.86568C18.7165 4.87815 18.7197 4.89041 18.7257 4.90134C18.7317 4.91226 18.7404 4.92151 18.7509 4.92822H18.6202C18.6077 4.90908 18.601 4.8868 18.6007 4.86396C18.5967 4.82069 18.5977 4.77984 18.5958 4.72728C18.5938 4.64832 18.5696 4.61366 18.4903 4.61366H18.3957V4.92811H18.2803V4.20408ZM18.4882 4.52656C18.5039 4.52799 18.5197 4.52592 18.5345 4.5205C18.5493 4.51508 18.5627 4.50644 18.5738 4.49521C18.5848 4.48398 18.5933 4.47043 18.5985 4.45555C18.6036 4.44067 18.6055 4.42483 18.6038 4.40916C18.6038 4.33192 18.5705 4.2913 18.4943 4.2913H18.3957V4.52656H18.4882Z" fill="#231F20"/>
</svg>
