<svg width="20" height="20" viewBox="0 0 20 20" fill="none" xmlns="http://www.w3.org/2000/svg">
<rect width="20" height="20" rx="10" fill="#F2BC1B"/>
<path d="M11.0108 11.5399C11.0108 11.6127 10.9835 11.6769 10.9433 11.7219V11.3285C10.9657 11.3376 10.9812 11.3447 10.9928 11.351C10.9996 11.3741 11.0108 11.4293 11.0108 11.5399ZM10.9878 11.3373C10.9878 11.3373 10.9882 11.3379 10.9888 11.3393C10.9881 11.338 10.9878 11.3374 10.9878 11.3373Z" fill="white" stroke="white"/>
<path d="M4.66703 9.95743C4.65637 7.01453 7.03977 4.61931 9.98423 4.60841C12.9286 4.60332 15.323 6.98236 15.3337 9.92605C15.3444 12.8691 12.9607 15.2644 10.0161 15.2751C7.073 15.2857 4.6777 12.9021 4.66703 9.95743ZM12.8862 11.5401C12.8862 10.9115 12.6981 10.4423 12.3958 10.1042C12.1045 9.77865 11.7465 9.61926 11.4847 9.52844L10.9379 9.33287V8.38892C10.9791 8.45459 11.0054 8.53739 11.0054 8.63507C11.0054 9.15038 11.4276 9.57257 11.9429 9.57257C12.4582 9.57257 12.8804 9.15038 12.8804 8.63507C12.8804 7.47927 12.0408 6.49793 10.9267 6.35602C10.8568 5.90836 10.4667 5.56257 10.0004 5.56257C9.53917 5.56257 9.15257 5.90075 9.07645 6.34119C7.97382 6.39859 7.11453 7.33618 7.11453 8.46007C7.11453 9.08868 7.30264 9.55787 7.60497 9.8959C7.89618 10.2215 8.25425 10.3809 8.51599 10.4717L9.06286 10.6673V11.6112C9.0216 11.5456 8.99536 11.4628 8.99536 11.3651C8.99536 10.8498 8.57317 10.4276 8.05786 10.4276C7.54256 10.4276 7.12036 10.8498 7.12036 11.3651C7.12036 12.5209 7.9599 13.5022 9.07401 13.6441C9.14392 14.0918 9.53401 14.4376 10.0004 14.4376C10.4616 14.4376 10.8482 14.0994 10.9243 13.659C12.0269 13.6016 12.8862 12.664 12.8862 11.5401Z" fill="white" stroke="white"/>
<path d="M8.99512 8.46539C8.99512 8.37753 9.02489 8.31549 9.06262 8.27489V8.67675C9.0402 8.66769 9.02473 8.6605 9.0131 8.65424C9.00633 8.63119 8.99512 8.57592 8.99512 8.46539ZM9.01813 8.66793C9.0181 8.66796 9.01776 8.66735 9.01716 8.66598C9.01786 8.6672 9.01815 8.66789 9.01813 8.66793Z" fill="white" stroke="white"/>
</svg>
