<svg width="56" height="32" viewBox="0 0 56 32" fill="none" xmlns="http://www.w3.org/2000/svg">
<rect x="0.5" y="0.5" width="55" height="31" rx="5.5" fill="white"/>
<rect x="0.5" y="0.5" width="55" height="31" rx="5.5" stroke="#F4F4F4"/>
<path d="M28.6035 14.0636C28.5835 15.5592 30.0126 16.3939 31.0892 16.8902C32.1954 17.3994 32.5669 17.7259 32.5627 18.1811C32.5543 18.8781 31.6803 19.1856 30.8623 19.1976C29.4353 19.2185 28.6057 18.8331 27.946 18.5416L27.432 20.817C28.0937 21.1056 29.3192 21.3572 30.59 21.3682C33.5728 21.3682 35.5244 19.9753 35.535 17.8157C35.5466 15.075 31.5273 14.9232 31.5547 13.6982C31.5642 13.3267 31.9389 12.9304 32.7601 12.8295C33.1664 12.7786 34.2884 12.7397 35.5603 13.2938L36.0595 11.0922C35.3756 10.8566 34.4964 10.631 33.4018 10.631C30.5942 10.631 28.6194 12.0427 28.6035 14.0636ZM40.8568 10.8207C40.3121 10.8207 39.853 11.1212 39.6482 11.5825L35.3872 21.2064H38.3679L38.9611 19.6558H42.6036L42.9477 21.2064H45.5748L43.2823 10.8207H40.8568ZM41.2737 13.6263L42.1339 17.5262H39.778L41.2737 13.6263ZM24.9895 10.8207L22.64 21.2064H25.4803L27.8288 10.8207H24.9895ZM20.7876 10.8207L17.8312 17.8896L16.6353 11.879C16.4949 11.2081 15.9408 10.8207 15.3255 10.8207H10.4924L10.4248 11.1222C11.417 11.3259 12.5442 11.6544 13.2271 12.0058C13.6451 12.2205 13.7644 12.4082 13.9016 12.9184L16.1667 21.2064H19.1685L23.7704 10.8207H20.7876Z" fill="url(#paint0_linear_1_23423)"/>
<defs>
<linearGradient id="paint0_linear_1_23423" x1="26.5847" y1="21.5836" x2="26.8787" y2="10.5554" gradientUnits="userSpaceOnUse">
<stop stop-color="#222357"/>
<stop offset="1" stop-color="#254AA5"/>
</linearGradient>
</defs>
</svg>
